<?xml version="1.0" encoding="utf-8"?>
<!-- Generator: Adobe Illustrator 28.0.0, SVG Export Plug-In . SVG Version: 6.00 Build 0)  -->
<svg version="1.1" id="Слой_1" xmlns="http://www.w3.org/2000/svg" xmlns:xlink="http://www.w3.org/1999/xlink" x="0px" y="0px"
	 viewBox="0 0 219 130.7" style="enable-background:new 0 0 219 130.7;" xml:space="preserve">
<style type="text/css">
	.st0{fill:#FFFFFF;}
	.st1{fill:#757575;}
</style>
<g>
	<g id="XMLID_00000106109063803238778700000016482405459240756147_">
		<g id="XMLID_00000035506689219607925110000004282849155913807261_">
			<path id="XMLID_00000004545762557808058990000014574712251660265139_" class="st0" d="M26.81,30.82
				c-1.35,1.73-3.07,3.07-5.14,4.01c-2.07,0.94-4.21,1.41-6.43,1.41c-2.11,0-4.09-0.34-5.96-1.02c-1.86-0.68-3.48-1.65-4.85-2.91
				c-1.37-1.26-2.46-2.77-3.25-4.54C0.4,26,0,24.03,0,21.84c0-2.18,0.4-4.16,1.19-5.93c0.79-1.77,1.87-3.28,3.25-4.54
				c1.37-1.26,2.99-2.23,4.85-2.91s3.85-1.02,5.96-1.02c1.96,0,3.73,0.34,5.33,1.02c1.6,0.68,2.95,1.65,4.06,2.91
				c1.11,1.26,1.97,2.78,2.57,4.54c0.6,1.77,0.9,3.74,0.9,5.93v2.65H8.47c0.34,1.62,1.07,2.91,2.2,3.87
				c1.13,0.96,2.52,1.44,4.18,1.44c1.39,0,2.57-0.31,3.53-0.93c0.96-0.62,1.8-1.42,2.51-2.4L26.81,30.82z M19.64,18.74
				c0.04-1.43-0.43-2.65-1.41-3.67c-0.98-1.02-2.24-1.52-3.78-1.52c-0.94,0-1.77,0.15-2.48,0.45c-0.72,0.3-1.33,0.69-1.83,1.16
				c-0.51,0.47-0.9,1.02-1.19,1.64c-0.28,0.62-0.44,1.27-0.48,1.95H19.64z"/>
			<path id="XMLID_00000077317057639477966130000005430912957668089484_" class="st0" d="M28.96,8.13h9.14l6.94,18.63h0.11
				l6.43-18.63h8.52L49.28,35.56H40.3L28.96,8.13z"/>
			<path id="XMLID_00000081608987014349369550000013650093216228620169_" class="st0" d="M87.77,30.82
				c-1.35,1.73-3.07,3.07-5.14,4.01c-2.07,0.94-4.21,1.41-6.43,1.41c-2.11,0-4.09-0.34-5.96-1.02c-1.86-0.68-3.48-1.65-4.85-2.91
				c-1.37-1.26-2.46-2.77-3.25-4.54c-0.79-1.77-1.19-3.74-1.19-5.93c0-2.18,0.4-4.16,1.19-5.93c0.79-1.77,1.87-3.28,3.25-4.54
				c1.37-1.26,2.99-2.23,4.85-2.91c1.86-0.68,3.85-1.02,5.96-1.02c1.96,0,3.73,0.34,5.33,1.02c1.6,0.68,2.95,1.65,4.06,2.91
				c1.11,1.26,1.97,2.78,2.57,4.54c0.6,1.77,0.9,3.74,0.9,5.93v2.65H69.43c0.34,1.62,1.07,2.91,2.2,3.87
				c1.13,0.96,2.52,1.44,4.18,1.44c1.39,0,2.57-0.31,3.53-0.93c0.96-0.62,1.8-1.42,2.51-2.4L87.77,30.82z M80.61,18.74
				c0.04-1.43-0.43-2.65-1.41-3.67c-0.98-1.02-2.24-1.52-3.78-1.52c-0.94,0-1.77,0.15-2.48,0.45c-0.72,0.3-1.33,0.69-1.83,1.16
				c-0.51,0.47-0.9,1.02-1.19,1.64c-0.28,0.62-0.44,1.27-0.48,1.95H80.61z"/>
			<path id="XMLID_00000087413591619583629830000006491463199440827054_" class="st0" d="M92.35,8.13h8.13v3.73h0.11
				c0.26-0.53,0.64-1.05,1.13-1.58c0.49-0.53,1.07-1,1.75-1.41c0.68-0.41,1.45-0.75,2.31-1.02c0.87-0.26,1.81-0.4,2.82-0.4
				c2.15,0,3.88,0.33,5.19,0.99c1.32,0.66,2.34,1.57,3.08,2.74c0.73,1.17,1.23,2.54,1.5,4.12c0.26,1.58,0.39,3.29,0.39,5.14v15.13
				h-8.47V22.13c0-0.79-0.03-1.61-0.08-2.46c-0.06-0.85-0.23-1.63-0.51-2.34c-0.28-0.71-0.72-1.3-1.3-1.75
				c-0.58-0.45-1.42-0.68-2.51-0.68c-1.09,0-1.98,0.2-2.65,0.59c-0.68,0.4-1.19,0.92-1.55,1.58c-0.36,0.66-0.59,1.4-0.71,2.23
				c-0.11,0.83-0.17,1.69-0.17,2.6v13.66h-8.47V8.13z"/>
			<path id="XMLID_00000036249479673372067350000002316240060774101641_" class="st0" d="M142.91,14.9h-7.45v9.14
				c0,0.75,0.04,1.44,0.11,2.06c0.07,0.62,0.24,1.16,0.51,1.61c0.26,0.45,0.67,0.8,1.21,1.04c0.55,0.25,1.27,0.37,2.17,0.37
				c0.45,0,1.04-0.05,1.78-0.14c0.73-0.09,1.29-0.31,1.67-0.65v7.06c-0.94,0.34-1.92,0.56-2.94,0.68c-1.02,0.11-2.01,0.17-2.99,0.17
				c-1.43,0-2.75-0.15-3.95-0.45c-1.2-0.3-2.26-0.78-3.16-1.44c-0.9-0.66-1.61-1.51-2.12-2.57c-0.51-1.05-0.76-2.33-0.76-3.84V14.9
				h-5.42V8.13h5.42V0h8.47v8.13h7.45V14.9z"/>
			<path id="XMLID_00000152969848241297021510000007190423231207367309_" class="st0" d="M172.6,35.56h-8.13v-3.73h-0.11
				c-0.3,0.53-0.69,1.05-1.16,1.58c-0.47,0.53-1.04,1-1.72,1.41c-0.68,0.41-1.45,0.75-2.31,1.02c-0.87,0.26-1.81,0.39-2.82,0.39
				c-2.14,0-3.89-0.33-5.22-0.99c-1.34-0.66-2.37-1.57-3.1-2.74c-0.73-1.17-1.22-2.54-1.47-4.12c-0.25-1.58-0.37-3.29-0.37-5.14
				V8.13h8.47v13.43c0,0.79,0.03,1.61,0.08,2.46c0.06,0.85,0.23,1.63,0.51,2.34c0.28,0.72,0.71,1.3,1.3,1.75
				c0.58,0.45,1.42,0.68,2.51,0.68c1.09,0,1.98-0.2,2.65-0.59c0.68-0.39,1.19-0.92,1.55-1.58c0.36-0.66,0.59-1.4,0.71-2.23
				c0.11-0.83,0.17-1.69,0.17-2.6V8.13h8.47V35.56z"/>
			<path id="XMLID_00000053525098799587023630000005913339648488072366_" class="st0" d="M175.88,8.13H184v3.73h0.11
				c0.26-0.53,0.64-1.05,1.13-1.58c0.49-0.53,1.07-1,1.75-1.41c0.68-0.41,1.45-0.75,2.31-1.02c0.87-0.26,1.81-0.4,2.82-0.4
				c1.92,0,3.62,0.4,5.11,1.19c1.49,0.79,2.61,2.03,3.36,3.73c0.98-1.77,2.16-3.03,3.56-3.78c1.39-0.75,3.1-1.13,5.14-1.13
				c1.84,0,3.4,0.31,4.66,0.93c1.26,0.62,2.26,1.47,2.99,2.54c0.73,1.07,1.26,2.33,1.58,3.78c0.32,1.45,0.48,3,0.48,4.66v16.2h-8.47
				V19.59c0-1.28-0.27-2.38-0.82-3.3c-0.55-0.92-1.52-1.38-2.91-1.38c-0.98,0-1.8,0.16-2.46,0.48c-0.66,0.32-1.19,0.76-1.58,1.33
				c-0.4,0.56-0.68,1.22-0.85,1.98c-0.17,0.75-0.25,1.54-0.25,2.37v14.51h-8.47V21.05c0-0.49-0.02-1.09-0.06-1.81
				c-0.04-0.71-0.17-1.39-0.4-2.03c-0.23-0.64-0.59-1.19-1.1-1.64c-0.51-0.45-1.25-0.68-2.23-0.68c-1.09,0-1.98,0.2-2.65,0.59
				c-0.68,0.4-1.2,0.92-1.55,1.58c-0.36,0.66-0.59,1.4-0.71,2.23c-0.11,0.83-0.17,1.69-0.17,2.6v13.66h-8.47V8.13z"/>
			<path id="XMLID_00000021826178396610849520000010977970295315431340_" class="st0" d="M1.64,45.38h7.79v3.61h0.11
				c0.34-0.49,0.78-0.99,1.33-1.5c0.55-0.51,1.19-0.97,1.92-1.38c0.73-0.41,1.53-0.75,2.4-1.02c0.87-0.26,1.79-0.4,2.77-0.4
				c2.03,0,3.88,0.35,5.53,1.04c1.66,0.7,3.08,1.67,4.26,2.94c1.19,1.26,2.1,2.76,2.74,4.49c0.64,1.73,0.96,3.63,0.96,5.7
				c0,1.92-0.29,3.75-0.87,5.5c-0.58,1.75-1.41,3.3-2.48,4.66c-1.07,1.35-2.38,2.44-3.92,3.25c-1.54,0.81-3.29,1.21-5.25,1.21
				c-1.77,0-3.41-0.27-4.94-0.82c-1.52-0.55-2.78-1.48-3.75-2.79H10.1v15.8H1.64V45.38z M9.43,59.1c0,2.07,0.59,3.74,1.78,5.02
				c1.19,1.28,2.85,1.92,5,1.92s3.81-0.64,5-1.92c1.19-1.28,1.78-2.95,1.78-5.02c0-2.07-0.59-3.74-1.78-5.02
				c-1.19-1.28-2.85-1.92-5-1.92s-3.81,0.64-5,1.92C10.02,55.35,9.43,57.03,9.43,59.1z"/>
			<path id="XMLID_00000145046591389407364000000015207843381073454525_" class="st0" d="M35,45.38h8.47v4.4h0.11
				c0.9-1.69,1.98-2.96,3.22-3.81s2.8-1.27,4.68-1.27c0.49,0,0.98,0.02,1.47,0.06c0.49,0.04,0.94,0.11,1.35,0.23v7.73
				c-0.6-0.19-1.2-0.33-1.78-0.42c-0.58-0.09-1.2-0.14-1.83-0.14c-1.62,0-2.9,0.23-3.84,0.68c-0.94,0.45-1.67,1.08-2.17,1.89
				c-0.51,0.81-0.84,1.78-0.99,2.91c-0.15,1.13-0.23,2.37-0.23,3.73v11.46H35V45.38z"/>
			<path id="XMLID_00000033355628021039746660000007916978339927406250_" class="st0" d="M81.51,68.07
				c-1.35,1.73-3.07,3.07-5.14,4.01c-2.07,0.94-4.21,1.41-6.43,1.41c-2.11,0-4.09-0.34-5.96-1.02c-1.86-0.68-3.48-1.65-4.85-2.91
				c-1.37-1.26-2.46-2.77-3.25-4.54c-0.79-1.77-1.19-3.74-1.19-5.93c0-2.18,0.4-4.16,1.19-5.93c0.79-1.77,1.87-3.28,3.25-4.54
				c1.37-1.26,2.99-2.23,4.85-2.91c1.86-0.68,3.85-1.02,5.96-1.02c1.96,0,3.73,0.34,5.33,1.02c1.6,0.68,2.95,1.65,4.06,2.91
				c1.11,1.26,1.97,2.78,2.57,4.54c0.6,1.77,0.9,3.74,0.9,5.93v2.65H63.16c0.34,1.62,1.07,2.91,2.2,3.87
				c1.13,0.96,2.52,1.44,4.18,1.44c1.39,0,2.57-0.31,3.53-0.93s1.8-1.42,2.51-2.4L81.51,68.07z M74.34,55.99
				c0.04-1.43-0.43-2.65-1.41-3.67c-0.98-1.02-2.24-1.52-3.78-1.52c-0.94,0-1.77,0.15-2.48,0.45c-0.72,0.3-1.33,0.69-1.83,1.16
				c-0.51,0.47-0.9,1.02-1.19,1.64c-0.28,0.62-0.44,1.27-0.48,1.95H74.34z"/>
			<path id="XMLID_00000145778996875914855670000003312535465560191879_" class="st0" d="M86.45,45.38h8.13v3.73h0.11
				c0.26-0.53,0.64-1.05,1.13-1.58c0.49-0.53,1.07-1,1.75-1.41c0.68-0.41,1.45-0.75,2.31-1.02c0.87-0.26,1.81-0.4,2.82-0.4
				c1.92,0,3.62,0.4,5.11,1.19c1.49,0.79,2.6,2.03,3.36,3.73c0.98-1.77,2.16-3.03,3.56-3.78c1.39-0.75,3.1-1.13,5.14-1.13
				c1.84,0,3.4,0.31,4.66,0.93c1.26,0.62,2.26,1.47,2.99,2.54c0.73,1.07,1.26,2.33,1.58,3.78c0.32,1.45,0.48,3,0.48,4.66v16.2h-8.47
				V56.84c0-1.28-0.27-2.38-0.82-3.3c-0.55-0.92-1.51-1.38-2.91-1.38c-0.98,0-1.8,0.16-2.46,0.48c-0.66,0.32-1.19,0.76-1.58,1.33
				c-0.39,0.56-0.68,1.22-0.85,1.98c-0.17,0.75-0.25,1.54-0.25,2.37v14.51h-8.47V58.31c0-0.49-0.02-1.09-0.06-1.81
				c-0.04-0.71-0.17-1.39-0.39-2.03c-0.23-0.64-0.59-1.19-1.1-1.64c-0.51-0.45-1.25-0.68-2.23-0.68c-1.09,0-1.98,0.2-2.65,0.59
				c-0.68,0.4-1.2,0.92-1.55,1.58c-0.36,0.66-0.59,1.4-0.71,2.23c-0.11,0.83-0.17,1.69-0.17,2.6v13.66h-8.47V45.38z"/>
			<path id="XMLID_00000024697628002259623660000000288133359284733625_" class="st0" d="M133.21,59.1c0-2.18,0.4-4.16,1.19-5.93
				c0.79-1.77,1.87-3.28,3.25-4.54c1.37-1.26,2.99-2.23,4.85-2.91c1.86-0.68,3.85-1.02,5.95-1.02c2.11,0,4.09,0.34,5.96,1.02
				c1.86,0.68,3.48,1.65,4.85,2.91c1.37,1.26,2.46,2.78,3.25,4.54c0.79,1.77,1.19,3.74,1.19,5.93c0,2.18-0.39,4.16-1.19,5.93
				c-0.79,1.77-1.87,3.28-3.25,4.54c-1.37,1.26-2.99,2.23-4.85,2.91c-1.86,0.68-3.85,1.02-5.96,1.02c-2.11,0-4.09-0.34-5.95-1.02
				c-1.86-0.68-3.48-1.65-4.85-2.91c-1.37-1.26-2.46-2.77-3.25-4.54C133.61,63.25,133.21,61.28,133.21,59.1z M141.68,59.1
				c0,2.07,0.59,3.74,1.78,5.02c1.19,1.28,2.85,1.92,5,1.92s3.81-0.64,5-1.92c1.19-1.28,1.78-2.95,1.78-5.02
				c0-2.07-0.59-3.74-1.78-5.02c-1.19-1.28-2.85-1.92-5-1.92s-3.81,0.64-5,1.92C142.27,55.35,141.68,57.03,141.68,59.1z"/>
		</g>
	</g>
	<g>
		<path class="st0" d="M13.25,112.83l-1.11,1c-1.06-1.29-2.47-1.94-4.21-1.94c-1.15,0-2.18,0.34-3.08,1.01
			c-0.9,0.67-1.35,1.62-1.35,2.85c0,0.75,0.18,1.39,0.55,1.92c0.37,0.52,0.85,0.93,1.44,1.21s1.25,0.55,1.96,0.78
			c0.71,0.23,1.42,0.49,2.13,0.76c0.71,0.27,1.36,0.59,1.96,0.96c0.59,0.37,1.08,0.89,1.44,1.55c0.37,0.67,0.55,1.46,0.55,2.38
			c0,1.73-0.6,3.06-1.81,3.99s-2.64,1.4-4.29,1.4c-2.45,0-4.37-0.92-5.78-2.75L2.75,127c1.33,1.57,2.9,2.35,4.7,2.35
			c1.21,0,2.26-0.35,3.17-1.07s1.36-1.68,1.36-2.9c0-0.75-0.19-1.4-0.55-1.93c-0.37-0.53-0.85-0.95-1.43-1.25
			c-0.58-0.31-1.23-0.58-1.94-0.82c-0.71-0.24-1.43-0.5-2.15-0.77c-0.72-0.27-1.37-0.59-1.96-0.96c-0.58-0.37-1.06-0.88-1.43-1.54
			c-0.37-0.66-0.55-1.44-0.55-2.36c0-1.66,0.6-2.93,1.81-3.83c1.21-0.9,2.62-1.35,4.24-1.35C10.35,110.56,12.1,111.32,13.25,112.83z
			"/>
		<path class="st0" d="M17.92,130.18v-19.11h1.54v8.48h11.15v-8.48h1.54v19.11h-1.54v-9.2H19.46v9.2H17.92z"/>
		<path class="st0" d="M38.95,125.03l-2.16,5.16h-1.7l8.29-19.11h1.54l8.12,19.11h-1.7l-2.16-5.16H38.95z M44.1,112.7l-4.59,10.93
			h9.1L44.1,112.7z"/>
		<path class="st0" d="M57.57,121.03v9.15h-1.54v-19.11h5.51c4.25,0,6.37,1.67,6.37,4.99c0,1.44-0.49,2.58-1.46,3.43
			c-0.97,0.85-2.18,1.32-3.62,1.43l5.64,9.26h-1.86l-5.45-9.15H57.57z M57.57,112.4v7.31h3.75c1.62,0,2.87-0.31,3.74-0.93
			c0.87-0.62,1.31-1.53,1.31-2.71c0-2.45-1.69-3.67-5.07-3.67H57.57z"/>
		<path class="st0" d="M73.68,120.93v7.88h10.47v1.38H72.17v-19.11H83.8v1.38H73.68v7.12h9.47v1.35H73.68z"/>
		<path class="st0" d="M88.12,130.18v-19.11h6.05c1.31,0,2.57,0.2,3.77,0.59c1.2,0.4,2.28,0.98,3.25,1.74s1.75,1.77,2.32,3.02
			c0.58,1.25,0.86,2.65,0.86,4.2c0,1.55-0.29,2.95-0.86,4.2c-0.58,1.25-1.35,2.26-2.32,3.02c-0.97,0.77-2.06,1.35-3.25,1.74
			c-1.2,0.4-2.45,0.59-3.77,0.59H88.12z M89.66,112.45v16.36h4.1c2.79,0,4.98-0.76,6.59-2.29c1.6-1.53,2.4-3.49,2.4-5.88
			c0-2.39-0.8-4.35-2.4-5.88s-3.8-2.29-6.59-2.29H89.66z"/>
		<path class="st0" d="M113.14,127.05l1.43-0.41c0.22,0.79,0.62,1.44,1.21,1.93s1.31,0.74,2.16,0.74c2.43,0,3.64-1.56,3.64-4.67
			v-13.58h1.54v13.68c0,0.76-0.08,1.46-0.24,2.12c-0.16,0.66-0.43,1.28-0.8,1.88s-0.89,1.06-1.57,1.4
			c-0.67,0.34-1.48,0.51-2.42,0.51c-1.28,0-2.36-0.34-3.24-1.01C113.99,128.98,113.41,128.12,113.14,127.05z"/>
		<path class="st0" d="M144.27,113.41c1.88,1.9,2.82,4.3,2.82,7.22s-0.94,5.32-2.82,7.22c-1.88,1.9-4.25,2.85-7.11,2.85
			c-2.84,0-5.2-0.95-7.08-2.85c-1.88-1.9-2.82-4.3-2.82-7.22s0.94-5.32,2.82-7.22s4.24-2.85,7.08-2.85
			C140.02,110.56,142.39,111.51,144.27,113.41z M143.18,126.8c1.53-1.68,2.29-3.74,2.29-6.17c0-2.43-0.77-4.48-2.31-6.17
			s-3.54-2.52-6.01-2.52c-2.47,0-4.46,0.84-5.99,2.52c-1.53,1.68-2.29,3.74-2.29,6.17c0,2.43,0.76,4.49,2.29,6.17
			c1.53,1.68,3.53,2.52,5.99,2.52C139.65,129.32,141.65,128.48,143.18,126.8z"/>
		<path class="st0" d="M156.73,121.93v8.26h-1.54v-8.26l-6.99-10.85h1.92l5.88,9.53l5.91-9.53h1.78L156.73,121.93z"/>
	</g>
</g>
</svg>
